<svg xmlns="http://www.w3.org/2000/svg">
<symbol id="menu" viewBox="0 0 40 40">
<path fill-rule="evenodd" clip-rule="evenodd" d="M8 14.6667V12H32V14.6667H8ZM8 21.3333H32V18.6667H8V21.3333ZM8 28H32V25.3333H8V28Z"/>
</symbol>
<symbol id="close" viewBox="0 0 40 40">
<path d="M29.6667 12.88L27.7867 11L20.3333 18.4533L12.88 11L11 12.88L18.4533 20.3333L11 27.7867L12.88 29.6667L20.3333 22.2133L27.7867 29.6667L29.6667 27.7867L22.2133 20.3333L29.6667 12.88Z"/>
</symbol>
<symbol id="skillset1" viewBox="0 0 26 32">
<path fill-rule="evenodd" clip-rule="evenodd" d="M24.1197 23.1111H14.188V30.2222H24.1197V23.1111ZM24.1197 1.77778H14.188V16H24.1197V1.77778ZM8.51282 16H1.4188V30.2222H8.51282V16ZM8.51282 1.77778H1.4188V8.88889H8.51282V1.77778ZM14.188 0C13.4044 0 12.7692 0.795947 12.7692 1.77778V16C12.7692 16.9819 13.4044 17.7778 14.188 17.7778H24.1197C24.9033 17.7778 25.5385 16.9819 25.5385 16V1.77778C25.5385 0.795947 24.9033 0 24.1197 0H14.188ZM14.188 21.3333C13.4044 21.3333 12.7692 22.1292 12.7692 23.1111V30.2222C12.7692 31.2041 13.4044 32 14.188 32H24.1197C24.9033 32 25.5385 31.2041 25.5385 30.2222V23.1111C25.5385 22.1292 24.9033 21.3333 24.1197 21.3333H14.188ZM0 16C0 15.0182 0.635227 14.2222 1.4188 14.2222H8.51282C9.2964 14.2222 9.93162 15.0182 9.93162 16V30.2222C9.93162 31.2041 9.2964 32 8.51282 32H1.4188C0.635227 32 0 31.2041 0 30.2222V16ZM1.4188 0C0.635227 0 0 0.795947 0 1.77778V8.88889C0 9.87072 0.635227 10.6667 1.4188 10.6667H8.51282C9.2964 10.6667 9.93162 9.87072 9.93162 8.88889V1.77778C9.93162 0.795947 9.2964 0 8.51282 0H1.4188Z" fill="#5221E6"/>
</symbol>
<symbol id="skillset2-1" viewBox="0 0 26 26">
<path fill-rule="evenodd" clip-rule="evenodd" d="M19.2336 1.60145C18.4975 0.865344 17.3874 0.65156 16.4305 1.06163L7.00714 5.10023C5.8941 5.57725 5.03594 6.506 4.65549 7.65985C3.76246 10.3683 2.60708 13.947 1.67428 17.0061C1.20815 18.5348 0.795621 19.9403 0.498919 21.0448C0.35075 21.5964 0.229365 22.0808 0.144391 22.4717C0.0652554 22.8359 0 23.1945 0 23.453V23.8045L2.19436 25.9989H2.54586C2.80447 25.9989 3.16311 25.9337 3.52722 25.8546C3.91819 25.7696 4.40255 25.6482 4.95417 25.5001C6.05877 25.2034 7.46417 24.7908 8.99285 24.3247C12.052 23.3919 15.6306 22.2364 18.3392 21.3435C19.493 20.963 20.4217 20.1049 20.8988 18.9918L24.9374 9.56841C25.3474 8.61158 25.1336 7.50146 24.3975 6.76535L19.2336 1.60145ZM17.0992 2.62165C17.4181 2.48495 17.7881 2.55622 18.0335 2.80159L23.1973 7.96549C23.4428 8.21086 23.5141 8.58089 23.3773 8.89984L19.3387 18.3233C19.0518 18.9925 18.4955 19.5047 17.8076 19.7315C15.1052 20.6225 11.5399 21.7736 8.49784 22.7012C6.97594 23.1653 5.59147 23.5715 4.51389 23.8609C3.97444 24.0058 3.51965 24.1194 3.16676 24.1961C3.09215 24.2122 3.02327 24.2266 2.9601 24.239L11.6316 15.5675C12.5779 16.0196 13.7457 15.8536 14.5295 15.0699C15.5237 14.0756 15.5237 12.4637 14.5295 11.4695C13.5353 10.4753 11.9233 10.4753 10.9291 11.4695C10.1453 12.2533 9.97941 13.4212 10.4315 14.3674L1.7599 23.0389C1.77238 22.9758 1.78668 22.9069 1.80291 22.8322C1.87961 22.4793 1.99315 22.0245 2.13806 21.4851C2.42749 20.4075 2.83366 19.0231 3.29772 17.5012C4.22533 14.459 5.37634 10.8936 6.26738 8.19131C6.49416 7.5035 7.00635 6.94711 7.67571 6.66024L17.0992 2.62165Z" fill="#5221E6"/>
</symbol>
<symbol id="skillset2-2" viewBox="0 0 15 15">
<path d="M0.221191 1.20013L13.7991 14.778L14.9994 13.5779L1.42148 0L0.221191 1.20013Z" fill="#5221E6"/>
</symbol>
<symbol id="" >

</symbol>
<symbol id="" >

</symbol>
<symbol id="" >

</symbol>
<symbol id="" >

</symbol>

</svg>