<svg width="17" height="16" viewBox="0 0 17 16" fill="none" xmlns="http://www.w3.org/2000/svg">
<path d="M8.37045 0.111084C4.12262 0.111084 0.666748 3.56694 0.666748 7.81482C0.666748 12.0626 4.12262 15.5185 8.37045 15.5185C8.98938 15.5185 9.60544 15.4448 10.2015 15.2994C10.5163 15.2226 10.7093 14.9052 10.6325 14.5904C10.5558 14.2755 10.2383 14.0825 9.92347 14.1594C9.41831 14.2826 8.89579 14.345 8.37045 14.345C4.76971 14.345 1.8403 11.4156 1.8403 7.81487C1.8403 4.21415 4.76971 1.28469 8.37045 1.28469C11.9712 1.28469 14.9006 4.21409 14.9006 7.81487C14.9006 9.12725 14.5131 10.3926 13.7798 11.4742C13.598 11.7424 13.668 12.1074 13.9362 12.2892C14.2043 12.471 14.5693 12.401 14.7512 12.1328C15.6167 10.8561 16.0742 9.36302 16.0742 7.81493C16.0742 3.56694 12.6183 0.111084 8.37045 0.111084Z" fill="#5221E6"/>
</svg>
