<svg width="2" height="2" viewBox="0 0 2 2" fill="none" xmlns="http://www.w3.org/2000/svg">
<path d="M1.69248 0.624815C1.68472 0.587491 1.67346 0.550168 1.65864 0.514029C1.64382 0.478482 1.62545 0.44412 1.60412 0.412128C1.58284 0.379544 1.55789 0.34933 1.53063 0.322077C1.50337 0.294825 1.47262 0.269942 1.44056 0.248021C1.40796 0.226693 1.37359 0.208327 1.33803 0.193516C1.30247 0.178705 1.2652 0.167448 1.22727 0.159746C1.15082 0.144342 1.072 0.144342 0.995555 0.159746C0.957568 0.167448 0.920233 0.178705 0.884735 0.193516C0.849119 0.208327 0.814805 0.226693 0.782211 0.248021C0.750209 0.269942 0.719986 0.294825 0.692133 0.322077C0.664872 0.34933 0.639983 0.379544 0.618648 0.412128C0.597314 0.44412 0.578942 0.478482 0.564126 0.514029C0.549311 0.550168 0.53805 0.587491 0.530346 0.624815C0.522642 0.663324 0.518555 0.702425 0.518555 0.740934C0.518555 0.779443 0.522642 0.818545 0.530346 0.856461C0.53805 0.894378 0.549311 0.931702 0.564126 0.967248C0.578942 1.00339 0.597314 1.03775 0.618648 1.06974C0.639983 1.10233 0.664872 1.13254 0.692133 1.15979C0.719986 1.18705 0.75015 1.21193 0.782211 1.23326C0.814864 1.25459 0.849178 1.27295 0.884735 1.28776C0.920293 1.30257 0.957568 1.31383 0.995555 1.32153C1.03402 1.32923 1.0726 1.33338 1.11112 1.33338C1.15017 1.33338 1.18875 1.32923 1.22727 1.32153C1.2652 1.31383 1.30253 1.30257 1.33803 1.28776C1.37365 1.27295 1.40802 1.25459 1.44056 1.23326C1.47256 1.21193 1.50337 1.18705 1.53063 1.15979C1.64086 1.0496 1.70374 0.896747 1.70374 0.740934C1.70374 0.702425 1.70012 0.663324 1.69248 0.624815Z" fill="#5221E6"/>
</svg>
